<?xml version="1.0" encoding="UTF-8" standalone="no"?>
<svg
   xmlns:dc="http://purl.org/dc/elements/1.1/"
   xmlns:cc="http://creativecommons.org/ns#"
   xmlns:rdf="http://www.w3.org/1999/02/22-rdf-syntax-ns#"
   xmlns:svg="http://www.w3.org/2000/svg"
   xmlns="http://www.w3.org/2000/svg"
   version="1.1"
   id="svg28"
   xml:space="preserve"
   width="317"
   height="319"
   viewBox="0 0 317 319"><metadata
     id="metadata34"><rdf:RDF><cc:Work
         rdf:about=""><dc:format>image/svg+xml</dc:format><dc:type
           rdf:resource="http://purl.org/dc/dcmitype/StillImage" /><dc:title></dc:title></cc:Work></rdf:RDF></metadata><defs
     id="defs32" /><g
     id="g36"
     transform="matrix(1.3333333,0,0,1.3333333,0,7.975e-6)"><g
       id="g38"
       transform="translate(-2.4289341,-1.6192894)"><path
         d="m 116.004,233.734 c 0.516,-0.207 1.359,-0.207 1.875,0 0.516,0.207 0.094,0.379 -0.938,0.379 -1.031,0 -1.453,-0.172 -0.937,-0.379 z m 8.25,0 c 0.516,-0.207 1.359,-0.207 1.875,0 0.516,0.207 0.094,0.379 -0.938,0.379 -1.031,0 -1.453,-0.172 -0.937,-0.379 z m -48.234,-28.941 -2.204,-2.438 2.438,2.204 c 1.344,1.211 2.437,2.308 2.437,2.437 0,0.578 -0.617,0.07 -2.671,-2.203 z m 122.671,-1.594 c 0,-0.156 0.594,-0.746 1.313,-1.312 1.191,-0.934 1.219,-0.907 0.285,0.281 -0.98,1.25 -1.598,1.648 -1.598,1.031 z M 89.098,201.418 c -0.934,-1.188 -0.907,-1.215 0.281,-0.281 0.723,0.566 1.312,1.156 1.312,1.312 0,0.617 -0.613,0.219 -1.593,-1.031 z m 113.343,-1.969 c 0,-0.156 0.594,-0.746 1.313,-1.312 1.191,-0.934 1.219,-0.907 0.285,0.281 -0.98,1.25 -1.598,1.648 -1.598,1.031 z m -69.375,-7.969 c 2.45,-2.472 4.625,-4.5 4.829,-4.5 0.207,0 -1.629,2.028 -4.079,4.5 -2.449,2.477 -4.621,4.5 -4.828,4.5 -0.203,0 1.629,-2.023 4.078,-4.5 z m 18.375,3.469 c 0,-0.156 0.594,-0.746 1.313,-1.312 1.191,-0.934 1.219,-0.907 0.285,0.281 -0.98,1.25 -1.598,1.648 -1.598,1.031 z m -42,-24.703 c 0,-0.129 1.098,-1.226 2.438,-2.437 l 2.437,-2.204 -2.199,2.438 c -2.055,2.273 -2.676,2.781 -2.676,2.203 z m 54.063,-5.453 c 0.035,-0.875 0.211,-1.051 0.453,-0.453 0.215,0.543 0.188,1.187 -0.062,1.437 -0.247,0.25 -0.426,-0.191 -0.391,-0.984 z m -82.5,-2.25 c 0.035,-0.875 0.211,-1.051 0.453,-0.453 0.215,0.543 0.188,1.187 -0.062,1.437 -0.247,0.25 -0.426,-0.191 -0.391,-0.984 z m 0.75,-6 c 0.035,-0.875 0.211,-1.051 0.453,-0.453 0.215,0.543 0.188,1.187 -0.062,1.437 -0.247,0.25 -0.426,-0.191 -0.391,-0.984 z M 6.898,119.48 c 0,-1.855 0.145,-2.613 0.325,-1.687 0.179,0.93 0.179,2.449 0,3.375 -0.18,0.93 -0.325,0.168 -0.325,-1.688 z m 154.485,-14.625 c 0.008,-1.648 0.16,-2.234 0.34,-1.304 0.179,0.933 0.172,2.285 -0.016,3 -0.187,0.719 -0.332,-0.043 -0.324,-1.696 z M 120.316,84.98 c 2.868,-2.886 5.379,-5.25 5.586,-5.25 0.207,0 -1.968,2.364 -4.836,5.25 -2.863,2.887 -5.375,5.25 -5.582,5.25 -0.207,0 1.969,-2.363 4.832,-5.25 z m -24.75,-4.5 c 0.75,-0.824 1.528,-1.5 1.735,-1.5 0.207,0 -0.235,0.676 -0.985,1.5 -0.746,0.825 -1.523,1.5 -1.73,1.5 -0.207,0 0.234,-0.675 0.98,-1.5 z m 94.246,-0.75 c 0,-1.031 0.168,-1.453 0.379,-0.937 0.207,0.516 0.207,1.359 0,1.875 -0.211,0.516 -0.379,0.094 -0.379,-0.938 z m 0,-3.75 c 0,-1.031 0.168,-1.453 0.379,-0.937 0.207,0.516 0.207,1.359 0,1.875 -0.211,0.516 -0.379,0.094 -0.379,-0.938 z m -81.871,-7.781 c 0,-0.156 0.594,-0.746 1.313,-1.312 1.191,-0.934 1.219,-0.907 0.285,0.281 -0.98,1.25 -1.598,1.648 -1.598,1.031 z m 64.621,-3.469 c 0,-1.031 0.168,-1.453 0.379,-0.937 0.207,0.516 0.207,1.359 0,1.875 -0.211,0.516 -0.379,0.094 -0.379,-0.938 z M 97.816,62.48 c 0.75,-0.824 1.528,-1.5 1.735,-1.5 0.207,0 -0.235,0.676 -0.985,1.5 -0.746,0.825 -1.523,1.5 -1.73,1.5 -0.207,0 0.234,-0.675 0.98,-1.5 z"
         style="fill:#f1a4ce;fill-opacity:1;fill-rule:nonzero;stroke:none"
         id="path40" /><path
         d="m 80.426,171.605 c 0.004,-2.472 0.144,-3.398 0.312,-2.046 0.164,1.347 0.16,3.371 -0.008,4.5 -0.171,1.125 -0.308,0.023 -0.304,-2.454 z m 83.164,-3.75 c 0.015,-1.238 0.183,-1.652 0.375,-0.921 0.187,0.73 0.176,1.742 -0.031,2.25 -0.204,0.507 -0.36,-0.09 -0.344,-1.329 z M 61.504,155.043 c 0.035,-0.875 0.211,-1.051 0.453,-0.453 0.215,0.543 0.188,1.187 -0.062,1.437 -0.247,0.25 -0.426,-0.191 -0.391,-0.984 z m 51.687,-62.844 c 0,-0.156 0.594,-0.746 1.313,-1.312 1.191,-0.934 1.219,-0.907 0.285,0.281 -0.98,1.25 -1.598,1.648 -1.598,1.031 z m -15.75,-13.5 c 0,-0.156 0.594,-0.746 1.313,-1.312 1.191,-0.934 1.219,-0.907 0.285,0.281 -0.98,1.25 -1.598,1.648 -1.598,1.031 z m 6,-5.953 c 0,-0.129 1.098,-1.226 2.438,-2.437 l 2.437,-2.204 -2.199,2.438 c -2.055,2.273 -2.676,2.781 -2.676,2.203 z m 73.461,-20.578 -2.586,-2.813 2.813,2.586 c 2.621,2.407 3.16,3.039 2.586,3.039 -0.125,0 -1.391,-1.265 -2.813,-2.812 z"
         style="fill:#e75da9;fill-opacity:1;fill-rule:nonzero;stroke:none"
         id="path42" /><path
         d="m 119.766,233.699 c 0.933,-0.179 2.281,-0.172 3,0.016 0.714,0.187 -0.047,0.336 -1.7,0.328 -1.648,-0.008 -2.234,-0.164 -1.3,-0.344 z m -9.715,-2.23 c 0.543,-0.215 1.191,-0.192 1.437,0.058 0.25,0.25 -0.191,0.426 -0.984,0.395 -0.871,-0.035 -1.051,-0.215 -0.453,-0.453 z m 21,0 c 0.543,-0.215 1.191,-0.192 1.437,0.058 0.25,0.25 -0.191,0.426 -0.984,0.395 -0.871,-0.035 -1.051,-0.215 -0.453,-0.453 z m -77.164,-50.301 -1.821,-2.063 2.063,1.821 c 1.93,1.699 2.406,2.304 1.82,2.304 -0.133,0 -1.062,-0.925 -2.062,-2.062 z m 53.304,-8.719 c 0,-0.156 0.594,-0.746 1.313,-1.312 1.191,-0.934 1.219,-0.907 0.285,0.281 -0.98,1.25 -1.598,1.648 -1.598,1.031 z m 6.75,-6.75 c 0,-0.156 0.594,-0.746 1.313,-1.312 1.191,-0.934 1.219,-0.907 0.285,0.281 -0.98,1.25 -1.598,1.648 -1.598,1.031 z M 39.754,149.793 c 0.035,-0.875 0.211,-1.051 0.453,-0.453 0.215,0.543 0.188,1.187 -0.062,1.437 -0.247,0.25 -0.426,-0.191 -0.391,-0.984 z m 192.75,-18.75 c 0.035,-0.875 0.211,-1.051 0.453,-0.453 0.215,0.543 0.188,1.187 -0.062,1.437 -0.247,0.25 -0.426,-0.191 -0.391,-0.984 z m -223.5,-1.5 c 0.035,-0.875 0.211,-1.051 0.453,-0.453 0.215,0.543 0.188,1.187 -0.062,1.437 -0.247,0.25 -0.426,-0.191 -0.391,-0.984 z M 234.945,119.48 c 0,-3.093 0.133,-4.359 0.293,-2.812 0.164,1.547 0.164,4.078 0,5.625 -0.16,1.547 -0.293,0.281 -0.293,-2.813 z M 9.004,110.043 c 0.035,-0.875 0.211,-1.051 0.453,-0.453 0.215,0.543 0.188,1.187 -0.062,1.437 -0.247,0.25 -0.426,-0.191 -0.391,-0.984 z M 139.59,81.605 c 0.015,-1.238 0.183,-1.652 0.375,-0.921 0.187,0.73 0.176,1.742 -0.031,2.25 -0.204,0.507 -0.36,-0.09 -0.344,-1.329 z M 94.816,65.48 c 0.75,-0.824 1.528,-1.5 1.735,-1.5 0.207,0 -0.235,0.676 -0.985,1.5 -0.746,0.825 -1.523,1.5 -1.73,1.5 -0.207,0 0.234,-0.675 0.98,-1.5 z m 4.875,-4.734 c 0,-0.129 1.098,-1.226 2.438,-2.437 l 2.437,-2.204 -2.199,2.438 c -2.055,2.273 -2.676,2.781 -2.676,2.203 z m -26.25,-3.047 c 0,-0.156 0.594,-0.746 1.313,-1.312 1.191,-0.934 1.219,-0.907 0.285,0.281 -0.98,1.25 -1.598,1.648 -1.598,1.031 z m 126.727,-17.531 -4.102,-4.313 4.313,4.102 c 2.375,2.254 4.312,4.195 4.312,4.313 0,0.554 -0.714,-0.094 -4.523,-4.102 z m 4.828,2.625 -1.43,-1.688 1.688,1.43 c 0.93,0.785 1.687,1.543 1.687,1.688 0,0.601 -0.601,0.156 -1.945,-1.43 z M 40.441,38.855 c 2.243,-2.269 4.247,-4.125 4.45,-4.125 0.207,0 -1.457,1.856 -3.7,4.125 -2.238,2.27 -4.242,4.125 -4.445,4.125 -0.207,0 1.457,-1.855 3.695,-4.125 z m 110.371,2.625 c 0,-1.031 0.168,-1.453 0.379,-0.937 0.207,0.516 0.207,1.359 0,1.875 -0.211,0.516 -0.379,0.094 -0.379,-0.938 z M 39.691,41.996 c 0,-0.129 1.098,-1.226 2.438,-2.437 l 2.437,-2.204 -2.199,2.438 c -2.055,2.273 -2.676,2.781 -2.676,2.203 z m 157.805,-6.703 -1.43,-1.688 1.688,1.43 c 0.93,0.785 1.687,1.543 1.687,1.688 0,0.601 -0.601,0.156 -1.945,-1.43 z m -53.695,-1.074 c 0.543,-0.215 1.191,-0.192 1.437,0.058 0.25,0.25 -0.191,0.426 -0.984,0.395 -0.871,-0.035 -1.051,-0.215 -0.453,-0.453 z m -8.285,-13.52 c 0.933,-0.179 2.281,-0.172 3,0.016 0.714,0.187 -0.047,0.336 -1.7,0.328 -1.648,-0.008 -2.234,-0.164 -1.3,-0.344 z M 118.254,7.184 c 1.754,-0.161 4.625,-0.161 6.375,0 1.754,0.156 0.32,0.285 -3.188,0.285 -3.503,0 -4.937,-0.129 -3.187,-0.285 z M 105.551,6.469 c 0.543,-0.215 1.191,-0.192 1.437,0.058 0.25,0.25 -0.191,0.426 -0.984,0.395 -0.871,-0.035 -1.051,-0.215 -0.453,-0.453 z m 7.5,-0.75 c 0.543,-0.215 1.191,-0.192 1.437,0.058 0.25,0.25 -0.191,0.426 -0.984,0.395 -0.871,-0.035 -1.051,-0.215 -0.453,-0.453 z m 15,0 c 0.543,-0.215 1.191,-0.192 1.437,0.058 0.25,0.25 -0.191,0.426 -0.984,0.395 -0.871,-0.035 -1.051,-0.215 -0.453,-0.453 z"
         style="fill:#a1a1a1;fill-opacity:1;fill-rule:nonzero;stroke:none"
         id="path44" /><path
         d="m 104.051,207.469 c 0.543,-0.215 1.191,-0.192 1.437,0.058 0.25,0.25 -0.191,0.426 -0.984,0.395 -0.871,-0.035 -1.051,-0.215 -0.453,-0.453 z m 41.39,-6.473 c 0,-0.129 1.098,-1.226 2.438,-2.437 l 2.437,-2.204 -2.199,2.438 c -2.055,2.273 -2.676,2.781 -2.676,2.203 z m -13.5,-7.547 c 0,-0.156 0.594,-0.746 1.313,-1.312 1.191,-0.934 1.219,-0.907 0.285,0.281 -0.98,1.25 -1.598,1.648 -1.598,1.031 z M 61.59,158.105 c 0.015,-1.238 0.183,-1.652 0.375,-0.921 0.187,0.73 0.176,1.742 -0.031,2.25 -0.204,0.507 -0.36,-0.09 -0.344,-1.329 z m 39.601,-83.25 c 0.969,-1.031 1.934,-1.875 2.137,-1.875 0.207,0 -0.418,0.844 -1.387,1.875 -0.968,1.032 -1.929,1.875 -2.132,1.875 -0.207,0 0.414,-0.843 1.382,-1.875 z"
         style="fill:#df248a;fill-opacity:1;fill-rule:nonzero;stroke:none"
         id="path46" /><path
         d="m 99.566,215.512 c -13.914,-2.543 -22.964,-8.571 -29.765,-19.824 -3.832,-6.344 -5.969,-12.282 -7.34,-20.415 -1.082,-6.39 -1.133,-8.824 -0.387,-17.992 1.754,-21.613 8.578,-40.578 21.606,-60.066 20.605,-30.813 51.871,-52.735 75.226,-52.735 7.93,0 13.121,2.582 19.891,9.895 6.5,7.02 10.211,14.449 10.711,21.441 0.43,6.028 -0.664,10.414 -5.141,20.59 -1.656,3.762 -4.5,10.719 -6.32,15.461 -4.207,10.961 -5.059,11.613 -9.746,7.496 -5.363,-4.707 -7.317,-11.742 -5.637,-20.289 0.508,-2.586 2.625,-9.058 4.699,-14.39 5.782,-14.832 6.84,-19.918 4.985,-23.993 -2.879,-6.316 -16.637,-2.808 -33.657,8.582 -8.25,5.524 -21.312,17.727 -28.851,26.957 -13.828,16.93 -24.703,40.047 -28.219,60 -0.543,3.094 -0.976,10.184 -0.961,15.75 0.028,8.723 0.305,11.051 2.02,16.801 2.754,9.239 5.644,13.426 11.269,16.321 12.164,6.253 28.153,-0.141 43.75,-17.497 5.336,-5.933 12.285,-15.929 16.863,-24.242 1.813,-3.297 3.86,-6.101 4.543,-6.234 3.821,-0.734 5.567,10.555 2.957,19.09 -4.082,13.343 -17.562,28.219 -31.246,34.484 -9.101,4.168 -23.039,6.313 -31.25,4.809 z"
         style="fill:#da0077;fill-opacity:1;fill-rule:nonzero;stroke:none"
         id="path48" /><path
         d="m 110.051,232.969 c 0.543,-0.215 1.191,-0.192 1.437,0.058 0.25,0.25 -0.191,0.426 -0.984,0.395 -0.871,-0.035 -1.051,-0.215 -0.453,-0.453 z m 21,0 c 0.543,-0.215 1.191,-0.192 1.437,0.058 0.25,0.25 -0.191,0.426 -0.984,0.395 -0.871,-0.035 -1.051,-0.215 -0.453,-0.453 z m -12.031,-0.781 c 1.347,-0.168 3.371,-0.165 4.5,0.007 1.125,0.172 0.023,0.309 -2.454,0.305 -2.472,-0.004 -3.394,-0.145 -2.046,-0.312 z m 14.281,-0.719 c 0.543,-0.215 1.191,-0.192 1.437,0.058 0.25,0.25 -0.191,0.426 -0.984,0.395 -0.871,-0.035 -1.051,-0.215 -0.453,-0.453 z m -88.805,-27.426 -1.43,-1.688 1.688,1.43 c 1.586,1.344 2.031,1.945 1.43,1.945 -0.141,0 -0.903,-0.757 -1.688,-1.687 z m 155.695,-4.688 c 2.243,-2.269 4.247,-4.125 4.45,-4.125 0.207,0 -1.457,1.856 -3.7,4.125 -2.238,2.27 -4.242,4.125 -4.445,4.125 -0.207,0 1.457,-1.855 3.695,-4.125 z m -159.054,-0.187 -1.821,-2.063 2.063,1.821 c 1.93,1.699 2.406,2.304 1.82,2.304 -0.133,0 -1.062,-0.925 -2.062,-2.062 z m -4.891,-3.375 -1.43,-1.688 1.688,1.43 c 1.586,1.344 2.031,1.945 1.43,1.945 -0.141,0 -0.903,-0.757 -1.688,-1.687 z m -1.898,-4.125 c -0.934,-1.188 -0.907,-1.215 0.281,-0.281 0.723,0.566 1.312,1.156 1.312,1.312 0,0.617 -0.613,0.219 -1.593,-1.031 z m 89.343,-14.063 c 0.969,-1.031 1.934,-1.875 2.137,-1.875 0.207,0 -0.418,0.844 -1.387,1.875 -0.968,1.032 -1.929,1.875 -2.132,1.875 -0.207,0 0.414,-0.843 1.382,-1.875 z m -7.5,-14.156 c 0,-0.156 0.594,-0.746 1.313,-1.312 1.191,-0.934 1.219,-0.907 0.285,0.281 -0.98,1.25 -1.598,1.648 -1.598,1.031 z M 58.684,148.73 c 0,-2.679 0.136,-3.777 0.3,-2.437 0.168,1.34 0.168,3.535 0,4.875 -0.164,1.34 -0.3,0.246 -0.3,-2.438 z m -18.872,-1.5 c 0,-1.031 0.168,-1.453 0.379,-0.937 0.207,0.516 0.207,1.359 0,1.875 -0.211,0.516 -0.379,0.094 -0.379,-0.938 z m 102.028,-2.625 c 0.015,-1.238 0.183,-1.652 0.375,-0.921 0.187,0.73 0.176,1.742 -0.031,2.25 -0.204,0.507 -0.36,-0.09 -0.344,-1.329 z m -82.586,-7.562 c 0.035,-0.875 0.211,-1.051 0.453,-0.453 0.215,0.543 0.188,1.187 -0.062,1.437 -0.247,0.25 -0.426,-0.191 -0.391,-0.984 z M 39.84,132.605 c 0.015,-1.238 0.183,-1.652 0.375,-0.921 0.187,0.73 0.176,1.742 -0.031,2.25 -0.204,0.507 -0.36,-0.09 -0.344,-1.329 z M 9.004,131.793 c 0.035,-0.875 0.211,-1.051 0.453,-0.453 0.215,0.543 0.188,1.187 -0.062,1.437 -0.247,0.25 -0.426,-0.191 -0.391,-0.984 z m 225,-0.75 c 0.035,-0.875 0.211,-1.051 0.453,-0.453 0.215,0.543 0.188,1.187 -0.062,1.437 -0.247,0.25 -0.426,-0.191 -0.391,-0.984 z M 7.562,129.23 c 0,-1.031 0.168,-1.453 0.379,-0.937 0.207,0.516 0.207,1.359 0,1.875 -0.211,0.516 -0.379,0.094 -0.379,-0.938 z m 225.895,-9.75 c 0,-3.503 0.129,-4.941 0.285,-3.187 0.156,1.754 0.156,4.621 0,6.375 -0.156,1.754 -0.285,0.32 -0.285,-3.188 z M 8.254,119.793 c 0.035,-0.875 0.211,-1.051 0.453,-0.453 0.215,0.543 0.188,1.187 -0.062,1.437 -0.247,0.25 -0.426,-0.191 -0.391,-0.984 z M 7.562,109.73 c 0,-1.031 0.168,-1.453 0.379,-0.937 0.207,0.516 0.207,1.359 0,1.875 -0.211,0.516 -0.379,0.094 -0.379,-0.938 z m 226.442,-1.187 c 0.035,-0.875 0.211,-1.051 0.453,-0.453 0.215,0.543 0.188,1.187 -0.062,1.437 -0.247,0.25 -0.426,-0.191 -0.391,-0.984 z m -225,-0.75 c 0.035,-0.875 0.211,-1.051 0.453,-0.453 0.215,0.543 0.188,1.187 -0.062,1.437 -0.247,0.25 -0.426,-0.191 -0.391,-0.984 z m 223.5,-1.5 c 0.035,-0.875 0.211,-1.051 0.453,-0.453 0.215,0.543 0.188,1.187 -0.062,1.437 -0.247,0.25 -0.426,-0.191 -0.391,-0.984 z m -224.25,-3 c 0.035,-0.875 0.211,-1.051 0.453,-0.453 0.215,0.543 0.188,1.187 -0.062,1.437 -0.247,0.25 -0.426,-0.191 -0.391,-0.984 z m 136.383,-8.375 -1.821,-2.063 2.063,1.821 c 1.93,1.699 2.406,2.304 1.82,2.304 -0.133,0 -1.062,-0.925 -2.062,-2.062 z M 91.816,68.48 c 0.75,-0.824 1.528,-1.5 1.735,-1.5 0.207,0 -0.235,0.676 -0.985,1.5 -0.746,0.825 -1.523,1.5 -1.73,1.5 -0.207,0 0.234,-0.675 0.98,-1.5 z m 12.375,-12.281 c 0,-0.156 0.594,-0.746 1.313,-1.312 1.191,-0.934 1.219,-0.907 0.285,0.281 -0.98,1.25 -1.598,1.648 -1.598,1.031 z M 80.566,50.48 c 2.868,-2.886 5.379,-5.25 5.586,-5.25 0.207,0 -1.968,2.364 -4.836,5.25 -2.863,2.887 -5.375,5.25 -5.582,5.25 -0.207,0 1.969,-2.363 4.832,-5.25 z m 124.782,-5.062 c -0.934,-1.188 -0.907,-1.215 0.281,-0.281 1.25,0.976 1.648,1.593 1.031,1.593 -0.156,0 -0.746,-0.589 -1.312,-1.312 z M 37.816,43.73 c 0.75,-0.824 1.528,-1.5 1.735,-1.5 0.207,0 -0.235,0.676 -0.985,1.5 -0.746,0.825 -1.523,1.5 -1.73,1.5 -0.207,0 0.234,-0.675 0.98,-1.5 z m 112.875,0.375 c 0,-0.617 0.133,-1.125 0.297,-1.125 0.16,0 0.489,0.508 0.727,1.125 0.238,0.622 0.105,1.125 -0.297,1.125 -0.398,0 -0.727,-0.503 -0.727,-1.125 z m 50.579,-5.062 -2.204,-2.438 2.438,2.204 c 1.344,1.211 2.437,2.308 2.437,2.437 0,0.578 -0.617,0.07 -2.671,-2.203 z M 45.316,36.23 c 0.75,-0.824 1.528,-1.5 1.735,-1.5 0.207,0 -0.235,0.676 -0.985,1.5 -0.746,0.825 -1.523,1.5 -1.73,1.5 -0.207,0 0.234,-0.675 0.98,-1.5 z m 149.532,-1.312 c -0.934,-1.188 -0.907,-1.215 0.281,-0.281 1.25,0.976 1.648,1.593 1.031,1.593 -0.156,0 -0.746,-0.589 -1.312,-1.312 z m -53.297,-0.699 c 0.543,-0.215 1.191,-0.192 1.437,0.058 0.25,0.25 -0.191,0.426 -0.984,0.395 -0.871,-0.035 -1.051,-0.215 -0.453,-0.453 z m -95.11,-0.52 c 0,-0.156 0.594,-0.746 1.313,-1.312 1.191,-0.934 1.219,-0.907 0.285,0.281 -0.98,1.25 -1.598,1.648 -1.598,1.031 z m 146.907,-1.781 c -0.934,-1.188 -0.907,-1.215 0.281,-0.281 1.25,0.976 1.648,1.593 1.031,1.593 -0.156,0 -0.746,-0.589 -1.312,-1.312 z m -38.196,-3 -2.586,-2.813 2.813,2.586 c 1.547,1.422 2.812,2.688 2.812,2.813 0,0.57 -0.632,0.031 -3.039,-2.586 z M 105.551,7.969 c 0.543,-0.215 1.191,-0.192 1.437,0.058 0.25,0.25 -0.191,0.426 -0.984,0.395 -0.871,-0.035 -1.051,-0.215 -0.453,-0.453 z m 30,0 c 0.543,-0.215 1.191,-0.192 1.437,0.058 0.25,0.25 -0.191,0.426 -0.984,0.395 -0.871,-0.035 -1.051,-0.215 -0.453,-0.453 z M 112.645,7.211 c 0.73,-0.191 1.742,-0.176 2.25,0.027 0.507,0.207 -0.09,0.364 -1.329,0.348 -1.234,-0.016 -1.652,-0.184 -0.921,-0.375 z m 15.359,0.023 c 0.516,-0.207 1.359,-0.207 1.875,0 0.516,0.207 0.094,0.379 -0.938,0.379 -1.031,0 -1.453,-0.172 -0.937,-0.379 z m 6.047,-0.765 c 0.543,-0.215 1.191,-0.192 1.437,0.058 0.25,0.25 -0.191,0.426 -0.984,0.395 -0.871,-0.035 -1.051,-0.215 -0.453,-0.453 z M 117.902,5.68 c 1.973,-0.157 5.012,-0.153 6.75,0.004 1.743,0.156 0.129,0.285 -3.586,0.281 -3.711,0 -5.136,-0.129 -3.164,-0.285 z"
         style="fill:#5e5e5e;fill-opacity:1;fill-rule:nonzero;stroke:none"
         id="path50" /><path
         d="M 106.816,232.684 C 58.039,226.074 18.945,189.371 9.711,141.52 3.84,111.09 10.207,80.766 27.965,54.605 33.691,46.168 46.902,32.883 55.816,26.594 c 13.301,-9.379 29.848,-16.137 46.5,-18.992 12.52,-2.145 32.219,-1.641 43.875,1.125 20.477,4.859 37.586,14 52.52,28.058 17.836,16.789 29.32,37.633 34.219,62.098 2.078,10.383 1.886,32.597 -0.375,43.097 -4.922,22.872 -15.309,42.196 -31.239,58.125 -15.859,15.856 -35.511,26.446 -57.75,31.114 -8.679,1.824 -28.332,2.605 -36.75,1.465 z m 33.375,-1.946 c 15.282,-2.492 33.465,-10.093 46.696,-19.523 7.836,-5.586 19.953,-17.703 25.539,-25.539 9.422,-13.219 16.832,-30.938 19.691,-47.071 1.762,-9.964 1.789,-28.167 0.051,-37.675 C 224.621,59.645 196.949,26.883 158.246,13.41 144.629,8.672 137.176,7.457 121.441,7.422 105.859,7.391 99.562,8.32 86.184,12.645 42.988,26.598 12.02,66.332 9.043,111.605 c -2.207,33.606 9.41,64.657 32.887,87.891 26.23,25.965 61.609,37.215 98.261,31.242 z M 83.352,190.641 c -1.993,-6.528 -1.969,-6.657 1.14,-6.684 6.981,-0.062 16.211,-5.062 25.539,-13.84 9.039,-8.508 13.571,-14.64 24.364,-32.965 4.097,-6.957 7.667,-2.422 7.121,9.047 -0.254,5.239 -0.719,6.969 -3.313,12.375 -9.172,19.071 -27.933,32.227 -48.633,34.106 l -5.449,0.492 z M 60.234,185.914 C 45.801,176.191 38.004,154.965 40.355,131.777 42.875,106.93 52.949,83.621 70.473,62.105 76.496,54.707 90.789,41.137 97.863,36.094 114.531,24.219 133.438,18.73 145.082,22.395 c 5.504,1.73 12.566,8.101 17.738,15.996 3.895,5.949 4.371,7.289 2.309,6.496 -0.719,-0.278 -4.094,-0.492 -7.5,-0.481 l -6.188,0.024 v -3.032 c 0,-4.011 -3.179,-7.418 -6.929,-7.418 -9.934,0 -27.793,10.442 -43.438,25.391 -21.34,20.399 -34.949,44.176 -40.422,70.609 -2.086,10.082 -2.336,24.856 -0.562,33 0.676,3.094 1.625,8.278 2.109,11.516 0.481,3.238 1.504,7.711 2.27,9.938 1.679,4.882 1.113,5.082 -4.235,1.48 z m 85.621,-90.48 c -5.718,-5.27 -6.988,-12.555 -4.078,-23.352 l 1.586,-5.875 7.602,-3.766 c 6.906,-3.418 14.832,-5.675 16.461,-4.687 1.043,0.637 -0.227,4.726 -5.074,16.351 -2.579,6.188 -5.844,14.122 -7.25,17.625 -3.153,7.844 -4.27,8.293 -9.247,3.704 z"
         style="fill:#020202;fill-opacity:1;fill-rule:nonzero;stroke:none"
         id="path52" /></g></g></svg>
